<svg width="24" height="24" viewBox="0 0 24 24" fill="none" xmlns="http://www.w3.org/2000/svg">
<path d="M10.928 21C10.5339 21.001 10.1436 20.9238 9.77948 20.773C9.41541 20.6221 9.08489 20.4005 8.80704 20.121L1.68604 13L8.80704 5.879C9.94004 4.745 11.916 4.745 13.049 5.879C13.615 6.443 13.928 7.196 13.928 7.998C13.928 8.744 13.658 9.449 13.164 10H18C19.654 10 21 11.346 21 13C21 14.654 19.654 16 18 16H13.164C13.657 16.549 13.928 17.252 13.928 17.998C13.9294 18.3926 13.8525 18.7836 13.7016 19.1482C13.5507 19.5128 13.3289 19.8438 13.049 20.122C12.7711 20.4013 12.4405 20.6227 12.0765 20.7734C11.7124 20.9241 11.3221 21.0011 10.928 21ZM4.51404 13L10.221 18.707C10.4114 18.889 10.6646 18.9906 10.928 18.9906C11.1914 18.9906 11.4447 18.889 11.635 18.707C11.824 18.518 11.928 18.266 11.928 17.999C11.928 17.732 11.824 17.482 11.637 17.294L8.34204 14H18C18.2575 13.9885 18.5006 13.8781 18.6788 13.6918C18.8569 13.5055 18.9563 13.2577 18.9563 13C18.9563 12.7423 18.8569 12.4945 18.6788 12.3082C18.5006 12.1219 18.2575 12.0115 18 12H8.34204L11.635 8.707C11.7283 8.6145 11.8023 8.50448 11.8528 8.38326C11.9033 8.26205 11.9294 8.13204 11.9295 8.00071C11.9296 7.86938 11.9037 7.73934 11.8533 7.61805C11.803 7.49677 11.7291 7.38664 11.636 7.294C11.4457 7.11154 11.1924 7.00959 10.9287 7.0094C10.6651 7.00922 10.4116 7.11081 10.221 7.293L4.51404 13Z" fill="black"/>
</svg>
