<svg width="25" height="25" viewBox="0 0 25 25" fill="none" xmlns="http://www.w3.org/2000/svg">
<path d="M6.29119 3.30945C6.56723 2.66779 7.39953 1.84591 8.56203 2.14799C9.29119 2.33654 9.81619 2.77299 10.1131 3.37404C10.3714 3.89799 10.4152 4.46779 10.4256 4.90216C10.4244 5.32776 10.3759 5.7519 10.2808 6.16674H10.4829C12.1058 6.16674 13.4224 7.65841 12.912 9.28133L11.7141 13.0886C11.2297 14.6324 9.52661 15.4324 7.98807 14.9803L3.28807 13.6022C2.92647 13.4988 2.59284 13.3153 2.31202 13.0651C2.03121 12.815 1.81045 12.5047 1.66619 12.1574L1.20994 11.024C0.752651 9.88862 1.25161 8.64279 2.3089 8.06049L3.91515 7.17508L3.9464 7.15112C3.99953 7.10945 4.09536 7.0282 4.22036 6.89591C4.46932 6.63445 4.84119 6.16674 5.22244 5.40841C5.40786 5.0407 5.56307 4.75216 5.70057 4.49799V4.49591C5.92244 4.08445 6.09432 3.76674 6.29015 3.30841M4.67661 8.5407L3.06411 9.42924C2.65265 9.65529 2.51828 10.0855 2.65994 10.4397L3.11619 11.5751C3.21203 11.8105 3.42869 12.0147 3.72869 12.1032L8.42869 13.4813C9.23078 13.7167 10.0193 13.2751 10.2256 12.6199L11.4235 8.81362C11.5724 8.33862 11.2047 7.72924 10.4839 7.72924H9.26828C9.1458 7.72923 9.02505 7.70042 8.91576 7.64515C8.80647 7.58987 8.71171 7.50968 8.63912 7.41103C8.56653 7.31239 8.51815 7.19806 8.49788 7.07728C8.47761 6.95649 8.48603 6.83264 8.52244 6.7157C8.57661 6.54174 8.63182 6.34904 8.68182 6.15112C8.79223 5.71049 8.86932 5.2657 8.86307 4.93445C8.85473 4.5532 8.81098 4.26883 8.71203 4.0657C8.62348 3.88862 8.47557 3.73966 8.16932 3.65945C8.12811 3.64766 8.08482 3.64509 8.04251 3.65193C8.0002 3.65878 7.95991 3.67486 7.92453 3.69904C7.83747 3.75386 7.7686 3.83324 7.72661 3.92716C7.50161 4.45008 7.30265 4.81987 7.08078 5.22924L7.07765 5.23654C6.94015 5.49174 6.79432 5.76362 6.61932 6.11049C6.16932 7.00529 5.7089 7.59799 5.35473 7.97195C5.17765 8.15945 5.02661 8.28966 4.91723 8.37716C4.87477 8.41115 4.83098 8.44347 4.78598 8.47404L4.77973 8.4782L4.76515 8.48862L4.75265 8.49695L4.74432 8.50216L4.67661 8.5407ZM18.7079 21.6907C18.4318 22.3324 17.5995 23.1542 16.437 22.8522C15.7079 22.6636 15.1829 22.2272 14.886 21.6261C14.6277 21.1022 14.5839 20.5324 14.5735 20.098C14.5743 19.6724 14.6225 19.2483 14.7172 18.8334H14.5152C12.8922 18.8334 11.5756 17.3417 12.086 15.7188L13.2839 11.9115C13.7683 10.3678 15.4714 9.56779 17.0099 10.0199L21.7099 11.398C22.4391 11.6115 23.0474 12.1355 23.3318 12.8428L23.7881 13.9761C24.2454 15.1115 23.7464 16.3574 22.6891 16.9397L21.0829 17.8251L21.0516 17.849C20.9985 17.8907 20.9027 17.972 20.7777 18.1042C20.5287 18.3657 20.1568 18.8334 19.7756 19.5917C19.5902 19.9595 19.4349 20.248 19.2974 20.5022V20.5042C19.0756 20.9157 18.9037 21.2324 18.7079 21.6907ZM20.3224 16.4605L21.9349 15.572C22.3464 15.3459 22.4808 14.9157 22.3381 14.5615L21.8829 13.4261C21.8267 13.298 21.7425 13.184 21.6365 13.0926C21.5305 13.0012 21.4054 12.9347 21.2704 12.898L16.5704 11.5199C15.7683 11.2845 14.9797 11.7261 14.7735 12.3813L13.5756 16.1876C13.4266 16.6626 13.7943 17.272 14.5152 17.272H15.7308C15.8532 17.272 15.974 17.3008 16.0833 17.356C16.1926 17.4113 16.2873 17.4915 16.3599 17.5902C16.4325 17.6888 16.4809 17.8031 16.5012 17.9239C16.5214 18.0447 16.513 18.1686 16.4766 18.2855C16.4224 18.4595 16.3672 18.6522 16.3172 18.8501C16.2068 19.2907 16.1297 19.7355 16.136 20.0667C16.1443 20.448 16.1881 20.7324 16.287 20.9355C16.3756 21.1126 16.5235 21.2615 16.8297 21.3417C16.8709 21.3535 16.9142 21.3561 16.9565 21.3493C16.9989 21.3424 17.0391 21.3263 17.0745 21.3022C17.1616 21.2473 17.2304 21.168 17.2724 21.074C17.4974 20.5511 17.6964 20.1813 17.9183 19.772L17.9214 19.7647C18.0589 19.5095 18.2047 19.2376 18.3797 18.8907C18.8297 17.9959 19.2901 17.4032 19.6443 17.0292C19.8214 16.8417 19.9724 16.7105 20.0818 16.624C20.1367 16.5817 20.1804 16.5494 20.2131 16.5272L20.2193 16.523L20.2339 16.5126L20.2464 16.5042L20.2547 16.499L20.3224 16.4605Z" fill="black"/>
</svg>
