<svg width="25" height="15" viewBox="0 0 25 15" fill="none" xmlns="http://www.w3.org/2000/svg">
<path d="M11.875 10.9375C11.875 11.1861 11.7762 11.4246 11.6004 11.6004C11.4246 11.7762 11.1861 11.875 10.9375 11.875C10.6889 11.875 10.4504 11.7762 10.2746 11.6004C10.0988 11.4246 10 11.1861 10 10.9375C10 10.6889 10.0988 10.4504 10.2746 10.2746C10.4504 10.0988 10.6889 10 10.9375 10C11.1861 10 11.4246 10.0988 11.6004 10.2746C11.7762 10.4504 11.875 10.6889 11.875 10.9375ZM14.6875 10.9375C14.6875 11.1861 14.5887 11.4246 14.4129 11.6004C14.2371 11.7762 13.9986 11.875 13.75 11.875C13.5014 11.875 13.2629 11.7762 13.0871 11.6004C12.9113 11.4246 12.8125 11.1861 12.8125 10.9375C12.8125 10.6889 12.9113 10.4504 13.0871 10.2746C13.2629 10.0988 13.5014 10 13.75 10C13.9986 10 14.2371 10.0988 14.4129 10.2746C14.5887 10.4504 14.6875 10.6889 14.6875 10.9375ZM17.5 10.9375C17.5 11.1861 17.4012 11.4246 17.2254 11.6004C17.0496 11.7762 16.8111 11.875 16.5625 11.875C16.3139 11.875 16.0754 11.7762 15.8996 11.6004C15.7238 11.4246 15.625 11.1861 15.625 10.9375C15.625 10.6889 15.7238 10.4504 15.8996 10.2746C16.0754 10.0988 16.3139 10 16.5625 10C16.8111 10 17.0496 10.0988 17.2254 10.2746C17.4012 10.4504 17.5 10.6889 17.5 10.9375ZM20.3125 10.9375C20.3125 11.1861 20.2137 11.4246 20.0379 11.6004C19.8621 11.7762 19.6236 11.875 19.375 11.875C19.1264 11.875 18.8879 11.7762 18.7121 11.6004C18.5363 11.4246 18.4375 11.1861 18.4375 10.9375C18.4375 10.6889 18.5363 10.4504 18.7121 10.2746C18.8879 10.0988 19.1264 10 19.375 10C19.6236 10 19.8621 10.0988 20.0379 10.2746C20.2137 10.4504 20.3125 10.6889 20.3125 10.9375ZM10.9375 5C11.1861 5 11.4246 4.90123 11.6004 4.72541C11.7762 4.5496 11.875 4.31114 11.875 4.0625C11.875 3.81386 11.7762 3.5754 11.6004 3.39959C11.4246 3.22377 11.1861 3.125 10.9375 3.125C10.6889 3.125 10.4504 3.22377 10.2746 3.39959C10.0988 3.5754 10 3.81386 10 4.0625C10 4.31114 10.0988 4.5496 10.2746 4.72541C10.4504 4.90123 10.6889 5 10.9375 5ZM13.75 5C13.9986 5 14.2371 4.90123 14.4129 4.72541C14.5887 4.5496 14.6875 4.31114 14.6875 4.0625C14.6875 3.81386 14.5887 3.5754 14.4129 3.39959C14.2371 3.22377 13.9986 3.125 13.75 3.125C13.5014 3.125 13.2629 3.22377 13.0871 3.39959C12.9113 3.5754 12.8125 3.81386 12.8125 4.0625C12.8125 4.31114 12.9113 4.5496 13.0871 4.72541C13.2629 4.90123 13.5014 5 13.75 5ZM16.5625 5C16.8111 5 17.0496 4.90123 17.2254 4.72541C17.4012 4.5496 17.5 4.31114 17.5 4.0625C17.5 3.81386 17.4012 3.5754 17.2254 3.39959C17.0496 3.22377 16.8111 3.125 16.5625 3.125C16.3139 3.125 16.0754 3.22377 15.8996 3.39959C15.7238 3.5754 15.625 3.81386 15.625 4.0625C15.625 4.31114 15.7238 4.5496 15.8996 4.72541C16.0754 4.90123 16.3139 5 16.5625 5ZM19.375 5C19.6236 5 19.8621 4.90123 20.0379 4.72541C20.2137 4.5496 20.3125 4.31114 20.3125 4.0625C20.3125 3.81386 20.2137 3.5754 20.0379 3.39959C19.8621 3.22377 19.6236 3.125 19.375 3.125C19.1264 3.125 18.8879 3.22377 18.7121 3.39959C18.5363 3.5754 18.4375 3.81386 18.4375 4.0625C18.4375 4.31114 18.5363 4.5496 18.7121 4.72541C18.8879 4.90123 19.1264 5 19.375 5ZM2.5 3.75C2.5 2.75544 2.89509 1.80161 3.59835 1.09835C4.30161 0.395088 5.25544 0 6.25 0H18.75C19.7446 0 20.6984 0.395088 21.4017 1.09835C22.1049 1.80161 22.5 2.75544 22.5 3.75V11.25C22.5 12.2446 22.1049 13.1984 21.4017 13.9017C20.6984 14.6049 19.7446 15 18.75 15H6.25C5.25544 15 4.30161 14.6049 3.59835 13.9017C2.89509 13.1984 2.5 12.2446 2.5 11.25V3.75ZM6.25 1.25C5.58696 1.25 4.95107 1.51339 4.48223 1.98223C4.01339 2.45107 3.75 3.08696 3.75 3.75V6.875H7.5V1.25H6.25ZM7.5 8.125H3.75V11.25C3.75 11.913 4.01339 12.5489 4.48223 13.0178C4.95107 13.4866 5.58696 13.75 6.25 13.75H7.5V8.125ZM8.75 8.125V13.75H18.75C19.413 13.75 20.0489 13.4866 20.5178 13.0178C20.9866 12.5489 21.25 11.913 21.25 11.25V8.125H8.75ZM21.25 6.875V3.75C21.25 3.08696 20.9866 2.45107 20.5178 1.98223C20.0489 1.51339 19.413 1.25 18.75 1.25H8.75V6.875H21.25Z" fill="black"/>
</svg>
