<svg width="40" height="40" viewBox="0 0 40 40" fill="none" xmlns="http://www.w3.org/2000/svg">
<g clip-path="url(#clip0_166_138)">
<path d="M23.7982 20.4874C23.7649 21.2166 23.5274 21.9208 23.1086 22.5187C22.6889 23.1364 22.0843 23.6054 21.3815 23.8583C20.6862 24.142 19.9206 24.206 19.1878 24.0416C18.4515 23.8847 17.7794 23.5102 17.2586 22.9666C16.7425 22.3982 16.4037 21.6915 16.2836 20.9333C16.1478 20.1989 16.2402 19.4406 16.5482 18.7604C16.8482 18.0791 17.3399 17.4979 17.969 17.0937C18.6086 16.6979 19.3482 16.4874 20.1024 16.4854C21.0961 16.5395 22.0315 16.9687 22.7232 17.6833C23.0806 18.0552 23.3599 18.4949 23.5445 18.9765C23.7292 19.4582 23.8154 19.9719 23.7982 20.4874Z" fill="white"/>
<path d="M30.9688 11.6706C30.7317 11.0852 30.3794 10.5534 29.9327 10.1067C29.4861 9.66008 28.9543 9.30775 28.3688 9.07064C27.7793 8.84061 27.1536 8.71717 26.5209 8.70605H13.6834C12.4135 8.71099 11.1971 9.21763 10.2992 10.1156C9.40123 11.0135 8.89459 12.2299 8.88965 13.4998V26.5811C8.89056 27.2122 9.0166 27.837 9.26048 28.4191C9.50436 29.0013 9.86124 29.5294 10.3105 29.9727C11.2081 30.8633 12.419 31.3666 13.6834 31.3748H26.5209C27.4665 31.3687 28.3895 31.0854 29.1757 30.5599C29.9618 30.0345 30.5766 29.2899 30.9438 28.4186C31.1872 27.8364 31.3132 27.212 31.3146 26.5811V13.5186C31.31 12.8869 31.1929 12.2612 30.9688 11.6706ZM25.8917 23.0061C25.5856 23.7665 25.1293 24.4573 24.5501 25.0373C23.9667 25.6269 23.2771 26.0998 22.5188 26.4394C21.6974 26.7841 20.814 26.9567 19.9232 26.9467C19.0324 26.9367 18.1531 26.7441 17.3396 26.3811C16.0311 25.792 14.9578 24.7813 14.2912 23.5105C13.6246 22.2396 13.4033 20.7821 13.6626 19.3706C13.913 18.1252 14.5119 16.9765 15.3896 16.0581C16.2854 15.1603 17.425 14.5452 18.6671 14.2889C19.9092 14.0326 21.1992 14.1465 22.3771 14.6165C23.5584 15.0956 24.5646 15.9248 25.2605 16.9936C25.9636 18.0241 26.3457 19.2398 26.3584 20.4873C26.3876 21.3519 26.2271 22.2102 25.8917 23.0061ZM28.1251 12.9706C28.1447 13.133 28.1296 13.2977 28.0809 13.4538C28.0321 13.6099 27.9508 13.7539 27.8423 13.8762C27.7339 13.9986 27.6006 14.0966 27.4515 14.1637C27.3024 14.2308 27.1407 14.2655 26.9771 14.2655C26.8136 14.2655 26.6519 14.2308 26.5028 14.1637C26.3536 14.0966 26.2204 13.9986 26.1119 13.8762C26.0035 13.7539 25.9222 13.6099 25.8734 13.4538C25.8247 13.2977 25.8096 13.133 25.8292 12.9706C25.8048 12.8057 25.8162 12.6374 25.8627 12.4773C25.9092 12.3171 25.9897 12.1689 26.0986 12.0427C26.2075 11.9164 26.3424 11.8151 26.494 11.7457C26.6456 11.6763 26.8104 11.6404 26.9771 11.6404C27.1439 11.6404 27.3087 11.6763 27.4603 11.7457C27.6119 11.8151 27.7468 11.9164 27.8557 12.0427C27.9646 12.1689 28.0451 12.3171 28.0916 12.4773C28.138 12.6374 28.1495 12.8057 28.1251 12.9706Z" fill="white"/>
<path d="M30.1562 -0.3125H9.84375C7.15015 -0.3125 4.56686 0.757531 2.6622 2.6622C0.757531 4.56686 -0.3125 7.15015 -0.3125 9.84375V30.1562C-0.3125 31.49 -0.0498008 32.8107 0.460599 34.0429C0.970998 35.2751 1.7191 36.3947 2.6622 37.3378C4.56686 39.2425 7.15015 40.3125 9.84375 40.3125H30.1562C31.49 40.3125 32.8107 40.0498 34.0429 39.5394C35.2751 39.029 36.3947 38.2809 37.3378 37.3378C38.2809 36.3947 39.029 35.2751 39.5394 34.0429C40.0498 32.8107 40.3125 31.49 40.3125 30.1562V9.84375C40.3125 8.51001 40.0498 7.18933 39.5394 5.95712C39.029 4.72491 38.2809 3.60529 37.3378 2.6622C36.3947 1.7191 35.2751 0.970998 34.0429 0.460599C32.8107 -0.0498008 31.49 -0.3125 30.1562 -0.3125ZM34.4625 26.3792C34.4833 27.4417 34.2812 28.5021 33.8729 29.4854C33.0488 31.4589 31.4798 33.028 29.5062 33.8521C28.5208 34.2604 27.4646 34.4604 26.3979 34.4417H13.9062C12.8409 34.4596 11.7832 34.2597 10.7979 33.8542C9.82129 33.4431 8.93185 32.8499 8.17708 32.1063C7.42979 31.3549 6.83671 30.4645 6.43125 29.4854C6.00264 28.5052 5.78135 27.4469 5.78125 26.3771V13.7875C5.76397 12.722 5.9646 11.6643 6.37083 10.6792C7.17658 8.69736 8.73144 7.1133 10.6979 6.27083C11.7195 5.87367 12.8108 5.68729 13.9062 5.72292H26.5C27.5558 5.71347 28.6029 5.9152 29.5796 6.31627C30.5563 6.71733 31.443 7.30963 32.1875 8.05833C32.9313 8.8125 33.5229 9.70417 33.9333 10.6792C34.3396 11.6646 34.5417 12.7208 34.5229 13.7875L34.4625 26.3792Z" fill="white"/>
</g>
<defs>
<clipPath id="clip0_166_138">
<rect width="40" height="40" fill="white"/>
</clipPath>
</defs>
</svg>
