<svg width="25" height="25" viewBox="0 0 25 25" fill="none" xmlns="http://www.w3.org/2000/svg">
<path d="M20.3125 23.4375H17.1875C16.7735 23.4363 16.3768 23.2712 16.084 22.9785C15.7913 22.6857 15.6262 22.289 15.625 21.875V16.4063C15.211 16.405 14.8143 16.24 14.5215 15.9472C14.2288 15.6545 14.0637 15.2578 14.0625 14.8438V10.1563C14.0569 9.84692 14.1137 9.53963 14.2295 9.25274C14.3453 8.96584 14.5177 8.70523 14.7365 8.48646C14.9552 8.2677 15.2158 8.09527 15.5027 7.97947C15.7896 7.86367 16.0969 7.80689 16.4063 7.8125H21.0938C21.4031 7.80689 21.7104 7.86367 21.9973 7.97947C22.2842 8.09527 22.5448 8.2677 22.7635 8.48646C22.9823 8.70523 23.1547 8.96584 23.2705 9.25274C23.3863 9.53963 23.4431 9.84692 23.4375 10.1563V14.8438C23.4363 15.2578 23.2713 15.6545 22.9785 15.9472C22.6857 16.24 22.289 16.405 21.875 16.4063V21.875C21.8738 22.289 21.7088 22.6857 21.416 22.9785C21.1232 23.2712 20.7265 23.4363 20.3125 23.4375ZM16.4063 9.375C16.302 9.36874 16.1977 9.38465 16.1 9.4217C16.0024 9.45874 15.9137 9.51608 15.8399 9.58991C15.7661 9.66374 15.7087 9.7524 15.6717 9.85002C15.6347 9.94765 15.6187 10.052 15.625 10.1563V14.8438H17.1875V21.875H20.3125V14.8438H21.875V10.1563C21.8813 10.052 21.8654 9.94765 21.8283 9.85002C21.7913 9.7524 21.7339 9.66374 21.6601 9.58991C21.5863 9.51608 21.4976 9.45874 21.4 9.4217C21.3024 9.38465 21.198 9.36874 21.0938 9.375H16.4063ZM18.75 7.03125C18.1319 7.03125 17.5278 6.84797 17.0138 6.50459C16.4999 6.16121 16.0994 5.67316 15.8629 5.10214C15.6264 4.53112 15.5645 3.90279 15.6851 3.29659C15.8056 2.6904 16.1033 2.13358 16.5403 1.69654C16.9773 1.2595 17.5342 0.961876 18.1403 0.841297C18.7465 0.720719 19.3749 0.782604 19.9459 1.01913C20.5169 1.25565 21.005 1.65619 21.3483 2.17009C21.6917 2.684 21.875 3.28818 21.875 3.90625C21.8729 4.73442 21.543 5.52808 20.9574 6.11368C20.3718 6.69929 19.5782 7.02919 18.75 7.03125ZM18.75 2.34375C18.441 2.34375 18.1389 2.43539 17.8819 2.60708C17.625 2.77877 17.4247 3.0228 17.3064 3.30831C17.1882 3.59382 17.1572 3.90798 17.2175 4.21108C17.2778 4.51418 17.4266 4.79259 17.6452 5.01111C17.8637 5.22963 18.1421 5.37844 18.4452 5.43873C18.7483 5.49902 19.0624 5.46808 19.3479 5.34981C19.6335 5.23155 19.8775 5.03128 20.0492 4.77433C20.2209 4.51738 20.3125 4.21528 20.3125 3.90625C20.3113 3.49223 20.1463 3.09552 19.8535 2.80276C19.5607 2.51001 19.164 2.34499 18.75 2.34375ZM7.81251 15.7688V9.375H6.25001V15.7688C5.72874 15.953 5.28942 16.3157 5.00967 16.7926C4.72992 17.2694 4.62777 17.8299 4.72126 18.3748C4.81475 18.9197 5.09787 19.414 5.52058 19.7704C5.94329 20.1268 6.47837 20.3222 7.03126 20.3222C7.58414 20.3222 8.11922 20.1268 8.54193 19.7704C8.96464 19.414 9.24776 18.9197 9.34125 18.3748C9.43474 17.8299 9.33259 17.2694 9.05284 16.7926C8.77309 16.3157 8.33377 15.953 7.81251 15.7688Z" fill="black"/>
<path d="M7.03144 23.4375C5.95486 23.4387 4.90192 23.1218 4.00483 22.5266C3.10775 21.9314 2.40651 21.0844 1.98919 20.092C1.57186 19.0996 1.45704 18.006 1.65915 16.9486C1.86126 15.8911 2.37129 14.917 3.12519 14.1484V5.46875C3.12519 4.43275 3.53674 3.43918 4.26931 2.70661C5.00187 1.97405 5.99544 1.5625 7.03144 1.5625C8.06744 1.5625 9.06101 1.97405 9.79358 2.70661C10.5261 3.43918 10.9377 4.43275 10.9377 5.46875V14.1484C11.6916 14.917 12.2016 15.8911 12.4037 16.9486C12.6058 18.006 12.491 19.0996 12.0737 20.092C11.6564 21.0844 10.9551 21.9314 10.0581 22.5266C9.16097 23.1218 8.10802 23.4387 7.03144 23.4375ZM7.03144 3.125C6.41003 3.12562 5.81425 3.37275 5.37484 3.81215C4.93544 4.25156 4.68831 4.84734 4.68769 5.46875V14.8305L4.42832 15.0641C3.83838 15.5913 3.42247 16.2853 3.23564 17.0542C3.04882 17.8231 3.09988 18.6305 3.38208 19.3697C3.66428 20.1089 4.1643 20.745 4.81597 21.1938C5.46763 21.6425 6.24021 21.8828 7.03144 21.8828C7.82267 21.8828 8.59525 21.6425 9.24692 21.1938C9.89858 20.745 10.3986 20.1089 10.6808 19.3697C10.963 18.6305 11.0141 17.8231 10.8272 17.0542C10.6404 16.2853 10.2245 15.5913 9.63457 15.0641L9.37519 14.8305V5.46875C9.37457 4.84734 9.12744 4.25156 8.68804 3.81215C8.24863 3.37275 7.65285 3.12562 7.03144 3.125Z" fill="black"/>
</svg>
