<svg width="25" height="25" viewBox="0 0 25 25" fill="none" xmlns="http://www.w3.org/2000/svg">
<path d="M6.25 9.375C6.25 11.0326 6.90848 12.6223 8.08058 13.7944C9.25269 14.9665 10.8424 15.625 12.5 15.625C14.1576 15.625 15.7473 14.9665 16.9194 13.7944C18.0915 12.6223 18.75 11.0326 18.75 9.375C18.75 7.7174 18.0915 6.12769 16.9194 4.95558C15.7473 3.78348 14.1576 3.125 12.5 3.125C10.8424 3.125 9.25269 3.78348 8.08058 4.95558C6.90848 6.12769 6.25 7.7174 6.25 9.375Z" stroke="black" stroke-width="2" stroke-linecap="round" stroke-linejoin="round"/>
<path d="M12.5002 15.625L16.0419 21.7604L17.7064 18.3927L21.4544 18.6344L17.9127 12.5M7.08561 12.5L3.54395 18.6354L7.29186 18.3927L8.95645 21.7594L12.4981 15.625" stroke="black" stroke-width="2" stroke-linecap="round" stroke-linejoin="round"/>
</svg>
