<svg width="25" height="23" viewBox="0 0 25 23" fill="none" xmlns="http://www.w3.org/2000/svg">
<path d="M6.17845 5.14183L7.50658 9.56787M13.3472 15.4106L17.7753 16.7387M12.1701 10.747L18.1691 4.74808M4.16699 3.646C4.16699 3.85119 4.20741 4.05437 4.28593 4.24394C4.36445 4.43351 4.47955 4.60576 4.62464 4.75085C4.76973 4.89594 4.94198 5.01103 5.13155 5.08956C5.32112 5.16808 5.5243 5.2085 5.72949 5.2085C5.93468 5.2085 6.13786 5.16808 6.32743 5.08956C6.51701 5.01103 6.68926 4.89594 6.83435 4.75085C6.97944 4.60576 7.09453 4.43351 7.17305 4.24394C7.25158 4.05437 7.29199 3.85119 7.29199 3.646C7.29199 3.44081 7.25158 3.23762 7.17305 3.04805C7.09453 2.85848 6.97944 2.68623 6.83435 2.54114C6.68926 2.39605 6.51701 2.28096 6.32743 2.20243C6.13786 2.12391 5.93468 2.0835 5.72949 2.0835C5.5243 2.0835 5.32112 2.12391 5.13155 2.20243C4.94198 2.28096 4.76973 2.39605 4.62464 2.54114C4.47955 2.68623 4.36445 2.85848 4.28593 3.04805C4.20741 3.23762 4.16699 3.44081 4.16699 3.646ZM17.7087 3.646C17.7087 4.0604 17.8733 4.45782 18.1663 4.75085C18.4593 5.04388 18.8568 5.2085 19.2712 5.2085C19.6856 5.2085 20.083 5.04388 20.376 4.75085C20.669 4.45782 20.8337 4.0604 20.8337 3.646C20.8337 3.2316 20.669 2.83417 20.376 2.54114C20.083 2.24812 19.6856 2.0835 19.2712 2.0835C18.8568 2.0835 18.4593 2.24812 18.1663 2.54114C17.8733 2.83417 17.7087 3.2316 17.7087 3.646ZM17.7087 17.1877C17.7087 17.6021 17.8733 17.9995 18.1663 18.2925C18.4593 18.5855 18.8568 18.7502 19.2712 18.7502C19.6856 18.7502 20.083 18.5855 20.376 18.2925C20.669 17.9995 20.8337 17.6021 20.8337 17.1877C20.8337 16.7733 20.669 16.3758 20.376 16.0828C20.083 15.7898 19.6856 15.6252 19.2712 15.6252C18.8568 15.6252 18.4593 15.7898 18.1663 16.0828C17.8733 16.3758 17.7087 16.7733 17.7087 17.1877ZM4.16699 14.0627C4.16699 15.3059 4.66085 16.4981 5.53993 17.3772C6.41901 18.2563 7.61129 18.7502 8.85449 18.7502C10.0977 18.7502 11.29 18.2563 12.1691 17.3772C13.0481 16.4981 13.542 15.3059 13.542 14.0627C13.542 12.8195 13.0481 11.6272 12.1691 10.7481C11.29 9.86902 10.0977 9.37516 8.85449 9.37516C7.61129 9.37516 6.41901 9.86902 5.53993 10.7481C4.66085 11.6272 4.16699 12.8195 4.16699 14.0627Z" stroke="black" stroke-width="2" stroke-linecap="round" stroke-linejoin="round"/>
</svg>
